<?xml version="1.0" encoding="UTF-8"?><svg id="uuid-db6808f3-a090-4594-ac84-4e939dc1b9e6" xmlns="http://www.w3.org/2000/svg" width="192" height="192" viewBox="0 0 192 192"><path d="M118,45.03v-16.03c0-2.21-1.79-4-4-4H34c-2.21,0-4,1.79-4,4v20c0,2.21,1.79,4,4,4h52.83" fill="none" stroke="#FFF" stroke-linecap="round" stroke-linejoin="round" stroke-width="10"/><path d="M57.88,81h-23.88c-2.21,0-4,1.79-4,4v20c0,2.21,1.79,4,4,4h16.21" fill="none" stroke="#FFF" stroke-linecap="round" stroke-linejoin="round" stroke-width="10"/><path d="M50.21,109h-10.21c-2.21,0-4,1.79-4,4v20c0,2.21,1.79,4,4,4h14.14" fill="none" stroke="#FFF" stroke-linecap="round" stroke-linejoin="round" stroke-width="10"/><path d="M54.14,137h-29.14c-2.21,0-4,1.79-4,4v20c0,2.21,1.79,4,4,4h49.16" fill="none" stroke="#FFF" stroke-linecap="round" stroke-linejoin="round" stroke-width="10"/><path d="M86.83,53H25c-2.21,0-4,1.79-4,4v20c0,2.21,1.79,4,4,4h32.88" fill="none" stroke="#FFF" stroke-linecap="round" stroke-linejoin="round" stroke-width="10"/><circle cx="118.5" cy="112.5" r="52.5" fill="none" stroke="#FFF" stroke-linecap="round" stroke-linejoin="round" stroke-width="10"/><path d="M163.86,86.08l-35.95,42.13c-.79.92-2.2.97-3.05.09l-16.69-17.26c-.84-.87-2.26-.83-3.05.09l-28.35,33.23" fill="none" stroke="#FFF" stroke-linecap="round" stroke-linejoin="round" stroke-width="10"/></svg>